TITLE ""
FILE "1Q_t_0469-0477.mp3" MP3
  TRACK 01 AUDIO
    TITLE "1Q_t_0469-0477_01"
    INDEX 01 00:00:00
  TRACK 02 AUDIO
    TITLE "1Q_t_0469-0477_02"
    INDEX 01 00:01:16
  TRACK 03 AUDIO
    TITLE "1Q_t_0469-0477_03"
    INDEX 01 00:01:31
  TRACK 04 AUDIO
    TITLE "1Q_t_0469-0477_04"
    INDEX 01 00:02:31
  TRACK 05 AUDIO
    TITLE "1Q_t_0469-0477_05"
    INDEX 01 00:02:46
  TRACK 06 AUDIO
    TITLE "1Q_t_0469-0477_06"
    INDEX 01 00:08:69
  TRACK 07 AUDIO
    TITLE "1Q_t_0469-0477_07"
    INDEX 01 00:09:46
  TRACK 08 AUDIO
    TITLE "1Q_t_0469-0477_08"
    INDEX 01 00:10:54
  TRACK 09 AUDIO
    TITLE "1Q_t_0469-0477_09"
    INDEX 01 00:10:75
  TRACK 10 AUDIO
    TITLE "1Q_t_0469-0477_10"
    INDEX 01 00:13:21
  TRACK 11 AUDIO
    TITLE "1Q_t_0469-0477_11"
    INDEX 01 00:13:36
  TRACK 12 AUDIO
    TITLE "1Q_t_0469-0477_12"
    INDEX 01 00:19:51
  TRACK 13 AUDIO
    TITLE "1Q_t_0469-0477_13"
    INDEX 01 00:20:31
  TRACK 14 AUDIO
    TITLE "1Q_t_0469-0477_14"
    INDEX 01 00:21:32
  TRACK 15 AUDIO
    TITLE "1Q_t_0469-0477_15"
    INDEX 01 00:21:48
  TRACK 16 AUDIO
    TITLE "1Q_t_0469-0477_16"
    INDEX 01 00:22:47
  TRACK 17 AUDIO
    TITLE "1Q_t_0469-0477_17"
    INDEX 01 00:22:63
  TRACK 18 AUDIO
    TITLE "1Q_t_0469-0477_18"
    INDEX 01 00:26:66
  TRACK 19 AUDIO
    TITLE "1Q_t_0469-0477_19"
    INDEX 01 00:27:46
  TRACK 20 AUDIO
    TITLE "1Q_t_0469-0477_20"
    INDEX 01 00:28:58
  TRACK 21 AUDIO
    TITLE "1Q_t_0469-0477_21"
    INDEX 01 00:28:73
  TRACK 22 AUDIO
    TITLE "1Q_t_0469-0477_22"
    INDEX 01 00:30:06
  TRACK 23 AUDIO
    TITLE "1Q_t_0469-0477_23"
    INDEX 01 00:30:19
  TRACK 24 AUDIO
    TITLE "1Q_t_0469-0477_24"
    INDEX 01 00:34:44
  TRACK 25 AUDIO
    TITLE "1Q_t_0469-0477_25"
    INDEX 01 00:35:22
  TRACK 26 AUDIO
    TITLE "1Q_t_0469-0477_26"
    INDEX 01 00:36:32
  TRACK 27 AUDIO
    TITLE "1Q_t_0469-0477_27"
    INDEX 01 00:36:47
  TRACK 28 AUDIO
    TITLE "1Q_t_0469-0477_28"
    INDEX 01 00:37:55
  TRACK 29 AUDIO
    TITLE "1Q_t_0469-0477_29"
    INDEX 01 00:37:68
  TRACK 30 AUDIO
    TITLE "1Q_t_0469-0477_30"
    INDEX 01 00:41:72
  TRACK 31 AUDIO
    TITLE "1Q_t_0469-0477_31"
    INDEX 01 00:42:48
  TRACK 32 AUDIO
    TITLE "1Q_t_0469-0477_32"
    INDEX 01 00:43:73
  TRACK 33 AUDIO
    TITLE "1Q_t_0469-0477_33"
    INDEX 01 00:44:15
  TRACK 34 AUDIO
    TITLE "1Q_t_0469-0477_34"
    INDEX 01 00:45:68
  TRACK 35 AUDIO
    TITLE "1Q_t_0469-0477_35"
    INDEX 01 00:46:06
  TRACK 36 AUDIO
    TITLE "1Q_t_0469-0477_36"
    INDEX 01 00:52:01
  TRACK 37 AUDIO
    TITLE "1Q_t_0469-0477_37"
    INDEX 01 00:52:52
  TRACK 38 AUDIO
    TITLE "1Q_t_0469-0477_38"
    INDEX 01 00:53:57
  TRACK 39 AUDIO
    TITLE "1Q_t_0469-0477_39"
    INDEX 01 00:53:71
  TRACK 40 AUDIO
    TITLE "1Q_t_0469-0477_40"
    INDEX 01 00:56:72
  TRACK 41 AUDIO
    TITLE "1Q_t_0469-0477_41"
    INDEX 01 00:57:10
  TRACK 42 AUDIO
    TITLE "1Q_t_0469-0477_42"
    INDEX 01 01:01:35
  TRACK 43 AUDIO
    TITLE "1Q_t_0469-0477_43"
    INDEX 01 01:02:13
  TRACK 44 AUDIO
    TITLE "1Q_t_0469-0477_44"
    INDEX 01 01:03:30
  TRACK 45 AUDIO
    TITLE "1Q_t_0469-0477_45"
    INDEX 01 01:04:06
  TRACK 46 AUDIO
    TITLE "1Q_t_0469-0477_46"
    INDEX 01 01:05:49
  TRACK 47 AUDIO
    TITLE "1Q_t_0469-0477_47"
    INDEX 01 01:05:63
  TRACK 48 AUDIO
    TITLE "1Q_t_0469-0477_48"
    INDEX 01 01:07:18
  TRACK 49 AUDIO
    TITLE "1Q_t_0469-0477_49"
    INDEX 01 01:07:34
  TRACK 50 AUDIO
    TITLE "1Q_t_0469-0477_50"
    INDEX 01 01:11:36
  TRACK 51 AUDIO
    TITLE "1Q_t_0469-0477_51"
    INDEX 01 01:12:14
  TRACK 52 AUDIO
    TITLE "1Q_t_0469-0477_52"
    INDEX 01 01:13:21
  TRACK 53 AUDIO
    TITLE "1Q_t_0469-0477_53"
    INDEX 01 01:13:37
  TRACK 54 AUDIO
    TITLE "1Q_t_0469-0477_54"
    INDEX 01 01:15:51
  TRACK 55 AUDIO
    TITLE "1Q_t_0469-0477_55"
    INDEX 01 01:15:67
  TRACK 56 AUDIO
    TITLE "1Q_t_0469-0477_56"
    INDEX 01 01:19:63
